<svg id="Layer_1" xmlns="http://www.w3.org/2000/svg" viewBox="0 0 48 48"><style>.st0{fill:none;stroke:#00A9E7;stroke-width:2;stroke-miterlimit:10;} .st1{fill:#CCEEFA;} .st2{fill:#00A9E7;}</style><circle class="st0" cx="31" cy="31.6" r="10.7"/><ellipse class="st1" cx="31.6" cy="32" rx="8" ry="8.2"/><path class="st2" d="M35.6 30.5c0-.2-.1-.7-.1-.8-.1-1.1-.4-2.1-1-3-.8-1.1-2.2-1.8-3.6-1.7-1.4-.1-2.7.6-3.4 1.7-.6.8-.9 1.8-1 2.8v1h-1v6h11v-6h-.9zm-6-1c-.1-.3-.1-.7 0-1 .3-.6.9-.9 1.5-1 .6.1 1.2.5 1.5 1 .2.3 0 .4 0 1v1h-3v-1z"/><path class="st0" d="M11.2 31V15.7M31.1 15.9v5M15.1 13.7l9.3 9.3"/><circle class="st0" cx="31.2" cy="10.4" r="4.5"/><circle class="st0" cx="11.2" cy="10.2" r="4.5"/><circle class="st0" cx="10.8" cy="34.7" r="4.5"/></svg>