<svg id="Layer_1" xmlns="http://www.w3.org/2000/svg" viewBox="0 0 48 48"><style>.st0{fill:none;stroke:#1DA8E0;stroke-width:2;stroke-miterlimit:10;} .st1{fill:#CDECF8;} .st2{fill:#1DA8E0;}</style><path class="st0" d="M8.7 31.2h.2c1.3 0 2.3 1 2.3 2.3v7.2c0 1.4-1.1 2.5-2.5 2.5h-.2c-1.3 0-2.3-1-2.3-2.3v-7.2c0-1.3 1.1-2.5 2.5-2.5z"/><path class="st1" d="M23.9 39.2h5s1.9 0 1.9-1.2-1.7-1.2-1.7-1.2h-4.4s-1.3-1.3-4.4-1.2-3.9 1.2-6.1 1.2v4.8h17.4l8-3.3s2.1-.9.7-2.2c-1.4-1.3-3.3-.2-6.5 1.2l-3.2 1.5"/><path class="st0" d="M22.2 37.8H28s2.2-.1 2.2-2c0-1.1-.9-2-2-2h-5c-1.2-1.4-3.1-2.2-5-2-3.5.1-4.5 2-7 2v8h20l9.3-5.5s2.4-1.4.8-3.6c-1.8-2.3-3.8-.3-7.4 2.1l-3.7 2.4"/><path class="st2" d="M12.6 18.9c-.5-.1-1.1-.3-1.6-.5s-1-.3-1.6-.5c-1.1-.4-1.7-.9-1.7-1.5 0-.5.3-.9.7-1.1.6-.1 1.1-.3 1.7-.3.6 0 1.3.1 1.8.4.2.1.5.2.7.4.3.2.7.1.9-.2.1-.1.1-.2.1-.4s-.1-.4-.3-.5c-.2-.1-.4-.2-.7-.4-.4-.1-.7-.3-1.1-.4-.2-.1-.5-.1-.7-.1v-1.4c0-.4-.3-.7-.7-.7s-.7.3-.7.7v1.4c-.7.1-1.5.3-2.1.8-.7.5-1.1 1.3-1.1 2.1 0 .9.5 1.7 1.3 2.1.9.4 1.8.6 2.7.9.8.1 1.5.4 2.1.9.2.2.3.5.3.8 0 .5-.3 1-.8 1.2-.6.4-1.2.6-1.9.5h-.7l-.6-.1c-.5-.2-1-.4-1.4-.7-.3-.2-.7-.1-.9.3 0 .1-.1.2-.1.3 0 .2.1.4.3.6.6.3 1.3.6 2 .8l.9.1v1.5c0 .4.3.7.7.7s.7-.3.7-.7v-1.5c.8-.1 1.6-.4 2.3-.9.7-.5 1.2-1.3 1.2-2.2-.1-1.2-.7-2.1-1.7-2.4zM27.5 14.2c-.8-.2-1.6-.5-2.3-.6s-1.5-.5-2.3-.6c-1.6-.5-2.5-1.2-2.5-2.2 0-.7.4-1.3 1-1.6.7-.4 1.6-.7 2.4-.6.9 0 1.8.2 2.7.6.3.1.7.3 1 .5.5.2 1.1.1 1.3-.4.1-.3.2-.4.2-.5 0-.3-.2-.6-.5-.8-.3-.2-.6-.3-1-.5-.5-.2-1.1-.4-1.6-.5-.3-.1-.7-.1-1-.1V4.8c0-.6-.4-1-1-1s-1 .4-1 1v2.1c-1.1.1-2.1.5-3 1.2-1 .7-1.6 1.8-1.6 3 0 1.3.8 2.5 2 3.1 1.3.5 2.6.9 4 1.2 1.1.1 2.2.6 3.1 1.3.2.3.4.7.4 1.1-.1.7-.5 1.4-1.1 1.8-.8.6-1.8.8-2.8.8-.3 0-.7 0-1-.1l-1-.2c-.7-.2-1.4-.5-2-.9-.5-.3-1.1-.1-1.4.4-.1.1-.1.3-.1.5 0 .3.2.7.5.9.9.5 1.9.9 2.9 1.1l1.2.2v2.1c0 .6.4 1 1 1s1-.4 1-1V22c1.2-.1 2.3-.6 3.2-1.3 1.1-.7 1.7-1.9 1.8-3.2 0-1.5-.9-2.6-2.5-3.3zM38 22l-1.2-.3-1.2-.3c-.8-.3-1.3-.6-1.3-1.1 0-.4.2-.7.6-.9.4-.2.8-.3 1.3-.3s1 .1 1.4.3c.2.1.3.2.5.3.2.1.5.1.7-.2 0-.1.1-.2.1-.3 0-.2-.1-.3-.3-.4-.2-.1-.3-.2-.5-.3-.3-.1-.6-.2-.8-.3-.2 0-.4-.1-.6-.1V17c-.1-.3-.3-.5-.6-.4-.2 0-.4.2-.4.4v1.1c-.6 0-1.1.3-1.6.6-.5.4-.8.9-.8 1.6 0 .7.4 1.3 1 1.6.7.3 1.4.5 2.1.6.6.1 1.1.3 1.6.7.1.2.2.4.2.6 0 .4-.2.8-.6 1-.4.3-.9.4-1.5.4h-.5l-.6-.1c-.4-.1-.7-.3-1.1-.5-.2-.1-.6-.1-.7.2 0 .1-.1.2-.1.2 0 .2.1.3.2.4.5.3 1 .5 1.5.6l.7.1v1.1c.1.3.3.5.6.4.2 0 .4-.2.4-.4V26c.6-.1 1.3-.3 1.8-.7.6-.4.9-1 .9-1.7s-.5-1.4-1.2-1.6z"/></svg>