<svg id="Layer_1" xmlns="http://www.w3.org/2000/svg" viewBox="0 0 48 48"><style>.st0{fill:#CCEEFA;} .st1{fill:none;stroke:#00A9E7;stroke-width:2;stroke-miterlimit:10;} .st2{fill:#00A9E7;stroke:#00A9E7;stroke-miterlimit:10;}</style><ellipse class="st0" cx="13.2" cy="25" rx="7.3" ry="6.9"/><circle class="st1" cx="13" cy="24.2" r="9.5"/><path class="st2" d="M15 24.1c-.4-.1-.9-.3-1.3-.4s-.9-.3-1.3-.4c-.9-.3-1.4-.7-1.4-1.2 0-.4.2-.8.6-.9.4-.2.9-.4 1.4-.4.5 0 1 .1 1.5.3l.6.3c.3.1.6.1.7-.2 0-.1.1-.2.1-.3 0-.2-.1-.4-.3-.4l-.6-.3-.9-.3c-.2 0-.4-.1-.6-.1v-1.2c0-.3-.2-.6-.6-.6-.3 0-.6.2-.6.6v1.2c-.6.1-1.2.3-1.7.7-.6.4-.9 1-.9 1.7s.4 1.4 1.1 1.7c.7.3 1.5.5 2.2.7.6.1 1.2.3 1.7.7.1.2.2.4.2.6 0 .4-.3.8-.6 1-.5.3-1 .5-1.6.4h-.6l-.6-.1c-.4-.1-.8-.3-1.2-.5-.3-.2-.6-.1-.8.2-.1.1-.1.2-.1.3 0 .2.1.4.3.5.5.3 1.1.5 1.6.6l.7.1v1.2c0 .3.2.6.6.6.3 0 .6-.2.6-.6v-1.3c.7-.1 1.4-.3 1.9-.7.6-.4 1-1.1 1-1.8.2-.7-.3-1.5-1.1-1.7z"/><circle class="st1" cx="40" cy="10.1" r="4.5"/><circle class="st1" cx="40" cy="24.2" r="4.5"/><circle class="st1" cx="40" cy="37.9" r="4.5"/><path class="st1" d="M35 38.6c-4.1 0-7.5-3.8-7.5-8.5v-12c0-4.6 3.4-8.5 7.5-8.5M22.8 24.2h12.7"/></svg>