<svg id="Layer_1" xmlns="http://www.w3.org/2000/svg" viewBox="0 0 48 48"><style>.st0{fill:#CCEEFA;} .st1{fill:none;stroke:#00A9E7;stroke-width:2;stroke-miterlimit:10;} .st2{fill:none;stroke:#00A9E7;stroke-width:2;stroke-linecap:round;stroke-miterlimit:10;} .st3{fill:#FFFFFF;stroke:#00A9E7;stroke-width:2;stroke-miterlimit:10;} .st4{fill:#00A9E7;stroke:#00A9E7;stroke-miterlimit:10;}</style><path class="st0" d="M33.5 45.9H16.4c-.8 0-2.9-2.1-2.9-2.9V6.7c0-.8 2.1-2.9 2.8-2.9h17.3c.8 0 2.4 1.8 2.4 2.6v36.8c-.1.7-1.8 2.7-2.5 2.7z"/><path class="st1" d="M34.3 47h-20c-.9 0-3.4-2.3-3.4-3.2V4.2c0-.9 2.4-3.2 3.3-3.2h20.2c.9 0 2.8 1.9 2.8 2.8V44c0 .9-2 3-2.9 3zM11.5 8.9h25.1M11.5 36.8h24.9"/><path class="st2" d="M21.2 5h5.5"/><circle class="st3" cx="24.3" cy="41.7" r="2.3"/><circle class="st1" cx="24" cy="22.3" r="6.4"/><path class="st4" d="M25.3 22.2c-.3-.1-.6-.2-.9-.2-.3-.1-.6-.2-.9-.2-.5 0-.8-.4-.9-.8 0-.3.2-.5.4-.6.3-.2.6-.3.9-.3.3 0 .7.1 1 .2.1.1.2.1.4.2s.4 0 .5-.1v-.2c0-.1-.1-.2-.2-.3-.1-.1-.2-.1-.4-.2s-.4-.1-.6-.2h-.4v-.8c0-.2-.2-.4-.4-.4s-.4.2-.4.4v.8c-.4 0-.8.2-1.1.4-.4.3-.6.7-.6 1.1 0 .5.3 1 .7 1.2.5.2 1 .4 1.5.5.4.1.8.2 1.2.5.1.1.1.3.2.4 0 .3-.2.5-.4.7-.3.2-.7.3-1.1.3h-.4l-.4-.1c-.3-.1-.5-.2-.8-.3-.2-.1-.4 0-.5.1 0 .1-.1.1-.1.2s.1.2.2.3c.3.2.7.3 1.1.4l.5.1v.7c0 .2.2.4.4.4s.4-.2.4-.4v-.8c.5 0 .9-.2 1.3-.5s.7-.7.7-1.2c0-.6-.4-1.1-.9-1.3z"/></svg>