<svg xmlns="http://www.w3.org/2000/svg" viewBox="0 0 48 48"><defs><style>.a{fill:#cceefa;}.b{fill:#00a9e7;}</style></defs><ellipse class="a" cx="25" cy="24.33" rx="19.8" ry="20.23"/><path class="b" d="M9.51 28.73c.49-2.08 1.42-4.73 3.89-4.3S16 25 16.84 26s1.46.15 2.42 1.41.56 2.22 2.68 2.78 3.89.71 4 1.67a2.52 2.52 0 0 1-1.06 2.42c-.86.66-.35 1-1 2s-2.37 1-2.88 2.07-.77 2.17-1.92 2.37-.75.75-1.79 1.79c-.6.6-1.89.6-2.69-.9-.89-1.69-.22-4.23.14-6.25s-6.24-2.04-5.23-6.63zM16.89 10c-1 .71-1.31.3-1.36-.86 0-.61.76-1.19 1.65-1.65.43-.64.69-1.12.36-1.45-1 0-5.84 2.89-8.12 5.22a15.94 15.94 0 0 0-3.74 5.25c-.71 1.72-1.4 4.12-.9 5.38.44 1.1 1.35 1.61 2.31 2.87S9 25 9.26 24.11a1.49 1.49 0 0 0-1.06-2c-.81 0-1.87-.81-1.46-2.52a2.93 2.93 0 0 1 3.33-2.22A3.72 3.72 0 0 0 13.76 16 12.84 12.84 0 0 1 18 13c.69-.2 1.84 1.31 2.79.5s-.25-1.72-1.06-3.18-1.88-1.05-2.84-.32zM25.47 6c-1.06-1-2.67-.9-5-.77a.72.72 0 0 0-.38 1.24 1.35 1.35 0 0 1 1.52 1.4c0 1.51 1.11 2.22 1.92 1.77s.58-1.33 1.47-1.58S26.58 7 25.47 6zM41.23 16.46c-.52-.89-1.36 1-2.12 1a2.3 2.3 0 0 1-1.87-1C36.89 15.88 33.1 17 33 18s.56 1.41-.76 2.47-1.31 3.43-.76 5 .91 2.12 2.68 2.58a3.7 3.7 0 0 0 3.48-.5c1-.61 3-.14 2.37 1.41a4 4 0 0 0-.29 2.77 9.33 9.33 0 0 1-.9 5.38 14.32 14.32 0 0 0 4-7.12c.74-3.71 1.18-8.69-1.59-13.53zM34.46 16.46s-2.88-.38-2.42-1.89-.45-2.52.81-3.33 1.47-1.06.38-2.63L32.14 7a14.42 14.42 0 0 1 4.95 3.06 19.72 19.72 0 0 1 3.08 4.21s-1.36.81-2 .15-1.11-1.21-1.82-.76.29 1.97-1.89 2.8z"/><path class="b" d="M24 48a24 24 0 1 1 24-24 24 24 0 0 1-24 24zm0-46a22 22 0 1 0 22 22A22 22 0 0 0 24 2z"/></svg>