<svg xmlns="http://www.w3.org/2000/svg" viewBox="0 0 48 48"><defs><style>.a{fill:#cceefa;}.b{fill:#00a9e7;}</style></defs><ellipse class="a" cx="24.68" cy="25.05" rx="20.03" ry="20.41"/><path class="b" d="M24 0a24 24 0 1 0 24 24A24 24 0 0 0 24 0zm12.05 30.15a13.42 13.42 0 0 0 0-12.29l7.27-4.36a22 22 0 0 1-.09 21.15zM12.45 24A11.55 11.55 0 1 1 24 35.55 11.56 11.56 0 0 1 12.45 24zm22-19.33l-4.36 7.27a13.42 13.42 0 0 0-12.27 0l-4.31-7.27a22 22 0 0 1 20.98 0zM4.67 13.51l7.27 4.36a13.42 13.42 0 0 0 0 12.29l-7.19 4.5a22 22 0 0 1-.08-21.15zm8.84 29.83l4.36-7.27a13.42 13.42 0 0 0 12.27 0l4.36 7.27a22 22 0 0 1-20.99-.01z"/></svg>