<svg xmlns="http://www.w3.org/2000/svg" viewBox="0 0 35 45"><defs><style>.a{fill:#D1D5D8;}</style></defs><path class="a" d="M20.09,12.27a10.33,10.33,0,0,1-2.61.41A11.51,11.51,0,0,1,19.4,6.3a9.59,9.59,0,0,1,6.18-3.64,1.56,1.56,0,0,1,.07.27,1.56,1.56,0,0,0,.07.27V3.75A9.19,9.19,0,0,1,25,7.12a10,10,0,0,1-2.27,3.44A7.35,7.35,0,0,1,20.09,12.27ZM31.22,29.66A9.43,9.43,0,0,1,31.08,19a17.63,17.63,0,0,1,2.82-3,14.41,14.41,0,0,0-2.61-2.47A8.89,8.89,0,0,0,26,12a14,14,0,0,0-4.26.82,12.9,12.9,0,0,1-3.57.82,17.58,17.58,0,0,1-3.44-.76,17.3,17.3,0,0,0-4.4-.76,8.48,8.48,0,0,0-7,3.57A14.76,14.76,0,0,0,.51,25,25.44,25.44,0,0,0,4.15,37.42c2.47,4.26,4.95,6.39,7.49,6.39a9.5,9.5,0,0,0,3.3-.82,9.47,9.47,0,0,1,3.5-.82,10.13,10.13,0,0,1,3.71.82,11.3,11.3,0,0,0,3.44.82c2.13,0,4.26-1.65,6.39-4.88a23.36,23.36,0,0,0,3-6.18A8.13,8.13,0,0,1,31.22,29.66Z" transform="translate(-0.51 -2.65)"/></svg>