<svg xmlns="http://www.w3.org/2000/svg" viewBox="40 0 35 50"><defs><style>.a{fill:#D1D5D8;}</style></defs><path class="a" d="M64.11,7l0.43-.65L65,5.68l1-1.43a0.38,0.38,0,1,0-.64-0.42l-1,1.53L63.83,6l-0.44.65a12.81,12.81,0,0,0-9.11,0L53.85,6l-0.43-.65-1-1.54a0.38,0.38,0,1,0-.64.42l1,1.43,0.43,0.64L53.57,7c-3.25,1.51-5.45,4.38-5.45,7.66H69.55C69.55,11.34,67.36,8.48,64.11,7Zm-9.86,4.6a1.15,1.15,0,1,1,1.15-1.15A1.15,1.15,0,0,1,54.25,11.56Zm9.18,0a1.15,1.15,0,1,1,1.15-1.15A1.15,1.15,0,0,1,63.43,11.56Z" transform="translate(-0.51 -2.65)"/><path class="a" d="M48.29,16.16H48.12V33a2.43,2.43,0,0,0,2.42,2.42H52.3a2.29,2.29,0,0,0-.09.64V40.9a2.3,2.3,0,0,0,4.59,0V36.06a2.36,2.36,0,0,0-.09-0.64H61a2.29,2.29,0,0,0-.09.64V40.9a2.3,2.3,0,1,0,4.59,0V36.06a2.3,2.3,0,0,0-.09-0.64h1.75A2.43,2.43,0,0,0,69.55,33V16.16H48.29Z" transform="translate(-0.51 -2.65)"/><path class="a" d="M44.3,16.16a2.3,2.3,0,0,0-2.3,2.3v9.82a2.3,2.3,0,1,0,4.59,0V18.45A2.3,2.3,0,0,0,44.3,16.16Z" transform="translate(-0.51 -2.65)"/><path class="a" d="M73.38,16.16a2.3,2.3,0,0,0-2.3,2.3v9.82a2.3,2.3,0,1,0,4.59,0V18.45A2.29,2.29,0,0,0,73.38,16.16Z" transform="translate(-0.51 -2.65)"/></svg>