<svg id="Layer_1" xmlns="http://www.w3.org/2000/svg" viewBox="0 0 60 60"><style>.st0{fill:#00A9E7;}</style><path class="st0" d="M12.3 60H2.1c0-5 2.3-5.1 5.1-5.1s5.1.1 5.1 5.1z"/><path class="st0" d="M12 60H0v-1.2c0-6.3 3.3-6.3 6-6.3s6 0 6 6.3V60zm-8.6-2H11c-.2-3-1.4-2.6-3.8-2.6S3.7 55 3.4 58z"/><path class="st0" d="M5 20h2v33H5z"/><circle class="st0" cx="7.2" cy="17.3" r="2.9"/><path class="st0" d="M7.2 21.4c-2.3 0-4.2-1.9-4.2-4.1s1.9-4.2 4.2-4.2 4.2 1.9 4.2 4.2c-.1 2.3-1.9 4.1-4.2 4.1zm0-5.8c-.9 0-1.6.7-1.6 1.7s.7 1.6 1.6 1.6 1.7-.7 1.7-1.6-.8-1.7-1.7-1.7zM57.6 60H47.4c0-5 2.3-5.1 5.1-5.1s5.1.1 5.1 5.1z"/><path class="st0" d="M60 60H45v-1.2c0-6.3 4.8-6.3 7.5-6.3s7.5 0 7.5 6.3V60zm-11.2-2h7.5c-.2-3-1.4-2.6-3.8-2.6S49 55 48.8 58z"/><path class="st0" d="M52 20h3v33h-3z"/><circle class="st0" cx="55" cy="17.3" r="2.9"/><path class="st0" d="M55 21.4c-2.3 0-4.1-1.9-4.1-4.2s1.9-4.1 4.2-4.1 4.1 1.9 4.1 4.2-1.9 4.1-4.2 4.1zm0-5.8c-.9 0-1.6.7-1.6 1.7 0 .9.7 1.6 1.7 1.6.9 0 1.6-.7 1.6-1.6 0-.9-.8-1.7-1.7-1.7z"/><path class="st0" d="M38.4 34.9c-6.8 0-13.1-3.8-16.4-9.8l-.4-.6.4-.6c.5-1 .5-2.1 0-3.1-.4-.7-1.1-1.2-1.9-1.5-.7-.2-1.5 0-2.1.4-.6.4-1 1-1.1 1.7-.1.9.3 1.8.9 2.5L16 25.7c-1.2-1.2-1.8-2.9-1.6-4.5.1-1.5 1-2.8 2.2-3.6 1.2-.8 2.7-1.1 4.1-.8 1.5.4 2.7 1.3 3.5 2.7.8 1.5.9 3.3.3 4.9 4.3 7.3 13.6 10.1 21.2 6.2 4.4-2.2 7-5.8 8-11.5l2.5.5C55 26.1 52 30.3 46.9 32.9c-2.7 1.3-5.6 2-8.5 2zM17 0h3v8h-3zM25.12337 9.16485l4.31331-4.31331 1.76775 1.76775-4.31331 4.31331zM9.21548 6.58238l1.76775-1.76775 4.38402 4.38402-1.76775 1.76775z"/><path class="st0" d="M30 18h5v2h-5z"/></svg>