<svg id="Layer_1" xmlns="http://www.w3.org/2000/svg" viewBox="0 0 60 60"><style>.st0{fill:#00A9E7;}</style><path class="st0" d="M56.5 5.2h-53C1.5 5.2 0 6.7 0 8.7v42.7c0 1.9 1.5 3.5 3.5 3.5h53.1c1.9 0 3.5-1.5 3.5-3.5V8.7c-.1-2-1.6-3.5-3.6-3.5zm-53 2.3h53.1c.6 0 1.2.5 1.2 1.2v6.9H2.3V8.7c0-.7.5-1.2 1.2-1.2zm53 45h-53c-.6 0-1.2-.5-1.2-1.2V17.9h55.4v33.5c0 .6-.5 1.1-1.2 1.1z"/><path class="st0" d="M12.1 35.8v.4l6.3 6.3 2.2-2.2v-.1L16.2 36l4.4-4.2v-.2l-2.2-2.2zM23.1 46.9h3.5l9.2-23.4h-3.5zM38.2 31.6v.2l4.4 4.2-4.4 4.2v.1l2.2 2.2 6.4-6.3v-.4l-6.4-6.4z"/><circle class="st0" cx="7.5" cy="11.5" r="1.7"/><circle class="st0" cx="13.3" cy="11.5" r="1.7"/><circle class="st0" cx="19" cy="11.5" r="1.7"/></svg>