<svg id="Layer_1" xmlns="http://www.w3.org/2000/svg" viewBox="0 0 46 40"><style>.st0{fill:#D1D5D8;}</style><path class="st0" d="M42 31H28.2c.5 2.8 2.1 5.3 4.4 7H35c.6 0 1 .4 1 1s-.4 1-1 1H11c-.6 0-1-.4-1-1s.4-1 1-1h2.4c2.3-1.7 3.9-4.2 4.4-7H4c-2.2 0-4-1.8-4-4V4c0-2.2 1.8-4 4-4h38c2.2 0 4 1.8 4 4v23c0 2.2-1.8 4-4 4zm-25.6 7h13.2c-1.9-1.9-3.1-4.4-3.5-7h-6.3c-.3 2.6-1.5 5.1-3.4 7zM44 4c0-1.1-.9-2-2-2H4c-1.1 0-2 .9-2 2v19h42V4zm0 21H2v2c0 1.1.9 2 2 2h38c1.1 0 2-.9 2-2v-2zm-21 3c-.6 0-1-.4-1-1s.4-1 1-1 1 .4 1 1-.4 1-1 1z"/><path class="st0" d="M3.1 1.2h39.8c1.1 0 2 .9 2 2v18.9c0 1.1-.9 2-2 2H3.1c-1.1 0-2-.9-2-2V3.2c0-1.1.9-2 2-2z"/></svg>