<svg xmlns="http://www.w3.org/2000/svg" viewBox="0 0 60 60"><defs><style>.a{fill:#00a9e7;}</style></defs><path class="a" d="M30 0a30 30 0 1 0 30 30A30 30 0 0 0 30 0zm15.06 37.69a16.77 16.77 0 0 0 0-15.36l9.09-5.45A27.44 27.44 0 0 1 54 43.32zM15.57 30A14.43 14.43 0 1 1 30 44.43 14.45 14.45 0 0 1 15.57 30zM43.12 5.84l-5.45 9.09a16.77 16.77 0 0 0-15.33 0l-5.46-9.09a27.46 27.46 0 0 1 26.24 0zm-37.28 11l9.09 5.45a16.77 16.77 0 0 0 0 15.36L6 43.32a27.44 27.44 0 0 1-.16-26.44zm11 37.28L22.29 45a16.77 16.77 0 0 0 15.33 0l5.45 9.09a27.46 27.46 0 0 1-26.19 0z"/></svg>