<svg xmlns="http://www.w3.org/2000/svg" viewBox="0 0 99.72 112.12"><defs><style>.a{fill:#1ca8e0;}.b{clip-path:url(#a);}.c{clip-path:url(#b);}.d{clip-path:url(#c);}.e{clip-path:url(#d);}.f{clip-path:url(#e);}.g{clip-path:url(#f);}.h{clip-path:url(#g);}.i{clip-path:url(#h);}.j{clip-path:url(#i);}</style><clipPath id="a" transform="translate(-15.14 -8.95)"><path class="a" d="M100.8 72.44a10.84 10.84 0 0 1-8.54 13.79c-1.16.22-.72 2 .44 1.78a12.67 12.67 0 0 0 9.88-16 .88.88 0 0 0-.88-.66.86.86 0 0 0-.9 1.11"/></clipPath><clipPath id="b" transform="translate(-15.14 -8.95)"><path class="a" d="M96.58 74.1a6.67 6.67 0 0 1-4.45 7.56c-1.11.4-.68 2.18.44 1.78a8.57 8.57 0 0 0 5.79-9.79.76.76 0 0 0-.78-.65 1 1 0 0 0-1 1.12"/></clipPath><clipPath id="c" transform="translate(-15.14 -8.95)"><path class="a" d="M56.78 40.49v1.78l17.31 2.54v-4.32H56.78z"/></clipPath><clipPath id="d" transform="translate(-15.14 -8.95)"><path class="a" d="M63.27 26.52l1.16 14.33h2.31l.87-14.33h-4.34z"/></clipPath><clipPath id="e" transform="translate(-15.14 -8.95)"><path class="a" d="M64.54 20.72v1.66h-1.48v1.64h1.48v1.4h1.79v-1.4h1.47v-1.64h-1.47v-1.66h-1.79z"/></clipPath><clipPath id="f" transform="translate(-15.14 -8.95)"><path class="a" d="M57.79 41h1.84s-4.76-9 3.37-9.62l-.32-3.75h-.23C50 27.63 57.79 41 57.79 41"/></clipPath><clipPath id="g" transform="translate(-15.14 -8.95)"><path class="a" d="M68.22 27.63l-.31 3.75c8.1.63 3.35 9.54 3.35 9.54h1.83s7.77-13.33-4.66-13.33h-.21"/></clipPath><clipPath id="h" transform="translate(-15.14 -8.95)"><path class="a" d="M105.07 70.88a15.55 15.55 0 0 1-12.25 19.8c-1.16.21-.71 2 .45 1.78a17.39 17.39 0 0 0 13.58-22 .89.89 0 0 0-.89-.66.86.86 0 0 0-.9 1.1"/></clipPath><clipPath id="i" transform="translate(-15.14 -8.95)"><path class="a" d="M74.79 59.15h-.07c1.71-4.14 6.78-4.5 6 0a21.22 21.22 0 0 1-2.81.19c-1.05 0-2-.07-3.14-.12M48.68 42.74a3.07 3.07 0 0 0-1 2.79c.13 1.44 1.22 2.39 2.21 3.5a6.74 6.74 0 0 1 1.35 2.06A41.68 41.68 0 0 0 40.5 63.51l2.5-.33c-2.62 3.39-5.79 10-9.22 19.59l2.94 1.11c-2 3.15-4.38 11-5.86 17.82L61 119.1a8.92 8.92 0 0 0 8 0l18.35-10.6-.74-2c-3.48-16.84-11.24-26-9-27.73.58-.47 1.66.38 3.34 1.22a11.41 11.41 0 0 0 5.71 1.35c1.48-.06 2.93-.89 2.71-2.05a.83.83 0 0 0-.61-.61c-.55-.22-1.86-.63-4-1.58-1.29-.58-4.67-2.55-4.36-4.24.28-1.51 1.59-1.81 3.72-.9 1.35.58 2.5 2.06 7.64 1.8s4.94-4.24 4.94-4.24c3.08-2.83 1.41-4.62 1.41-4.62a11.34 11.34 0 0 0-2.7-1.28c-1.28-.51-5.91-2.44-8.09-3.59a5.25 5.25 0 0 1-2.83-3.86c-.25-1-.38-2.05-.77-3.21a7.25 7.25 0 0 0-2.57-3.21 29.63 29.63 0 0 0-6.64-3.38c-5.33-1-18.08-2.84-23.68-3.75a7.68 7.68 0 0 0-1.2-.13 1.91 1.91 0 0 0-1 .23"/></clipPath></defs><path class="a" d="M49.86 112.11a9.2 9.2 0 0 1-4.52-1.1L4.52 87.45A9.86 9.86 0 0 1 0 79.62V32.49a9.86 9.86 0 0 1 4.52-7.83L45.34 1.05a9.91 9.91 0 0 1 9 0l40.86 23.6a9.86 9.86 0 0 1 4.52 7.83v47.13a9.85 9.85 0 0 1-4.52 7.83l-40.82 23.61a9.21 9.21 0 0 1-4.52 1.06zM49.86 2a7.27 7.27 0 0 0-3.52.82L5.52 26.38A7.92 7.92 0 0 0 2 32.48v47.13a7.92 7.92 0 0 0 3.52 6.1l40.82 23.57a7.91 7.91 0 0 0 7 0l40.82-23.57a7.91 7.91 0 0 0 3.52-6.1V32.49a7.91 7.91 0 0 0-3.52-6.1L53.38 2.82A7.28 7.28 0 0 0 49.86 2z"/><path class="a" d="M85.66 63.49a10.84 10.84 0 0 1-8.54 13.79c-1.16.22-.72 2 .44 1.78a12.67 12.67 0 0 0 9.88-16 .88.88 0 0 0-.88-.66.86.86 0 0 0-.9 1.11"/><path class="b a" d="M75.96 62.38h13.56v16.89H75.96z"/><path class="a" d="M81.44 65.15a6.67 6.67 0 0 1-4.45 7.56c-1.11.4-.68 2.18.44 1.78a8.57 8.57 0 0 0 5.79-9.79.76.76 0 0 0-.78-.65 1 1 0 0 0-1 1.12"/><path class="c a" d="M75.89 64.03h8.05V74.9h-8.05z"/><path class="a" d="M41.64 31.55v1.78l17.31 2.53v-4.31H41.64"/><path class="d a" d="M41.64 31.55h17.32v4.31H41.64z"/><path class="a" d="M48.13 17.58l1.16 14.32h2.31l.87-14.32h-4.34"/><path class="e a" d="M48.13 17.58h4.33v14.33h-4.33z"/><path class="a" d="M49.4 11.78v1.66h-1.48v1.63h1.48v1.41h1.79v-1.41h1.47v-1.63h-1.47v-1.66H49.4"/><path class="f a" d="M47.92 11.78h4.74v4.7h-4.74z"/><path class="a" d="M42.65 32.05h1.84s-4.76-9 3.37-9.62l-.32-3.75h-.23c-12.45 0-4.66 13.37-4.66 13.37"/><path class="g a" d="M34.88 18.68h12.96v13.33H34.88z"/><path class="a" d="M53.08 18.68l-.31 3.75c8.1.63 3.35 9.54 3.35 9.54h1.83s7.77-13.33-4.66-13.33h-.21"/><path class="h a" d="M52.77 18.68h12.96v13.33H52.77z"/><path class="a" d="M89.93 61.93a15.55 15.55 0 0 1-12.25 19.8c-1.16.21-.71 2 .45 1.78a17.39 17.39 0 0 0 13.58-22 .89.89 0 0 0-.89-.66.86.86 0 0 0-.9 1.1"/><path class="i a" d="M76.51 60.84h18.11v22.89H76.51z"/><path class="a" d="M59.65 50.2h-.07c1.71-4.14 6.78-4.5 6 0a21.22 21.22 0 0 1-2.81.19c-1.05 0-2-.07-3.14-.12M33.54 33.79a3.07 3.07 0 0 0-1 2.79c.13 1.44 1.22 2.39 2.21 3.5a6.74 6.74 0 0 1 1.35 2.06 41.68 41.68 0 0 0-10.74 12.42l2.5-.33c-2.62 3.39-5.79 10-9.22 19.59l2.94 1.11c-2 3.15-4.38 11-5.86 17.82l30.14 17.4a8.92 8.92 0 0 0 8 0l18.35-10.6-.74-2c-3.48-16.84-11.24-26-9-27.73.58-.47 1.66.38 3.34 1.22a11.41 11.41 0 0 0 5.71 1.35c1.48-.06 2.93-.89 2.71-2.05a.83.83 0 0 0-.61-.61c-.55-.22-1.86-.63-4-1.58-1.29-.58-4.67-2.55-4.36-4.24.28-1.51 1.59-1.81 3.72-.9 1.35.58 2.5 2.06 7.64 1.8s4.94-4.24 4.94-4.24c3.08-2.83 1.41-4.62 1.41-4.62a11.34 11.34 0 0 0-2.7-1.28c-1.28-.51-5.91-2.44-8.09-3.59a5.25 5.25 0 0 1-2.83-3.86c-.25-1-.38-2.05-.77-3.21a7.25 7.25 0 0 0-2.57-3.21 29.63 29.63 0 0 0-6.64-3.38c-5.33-1-18.08-2.84-23.68-3.75a7.68 7.68 0 0 0-1.2-.13 1.91 1.91 0 0 0-1 .23"/><path class="j a" d="M15.7 33.57h68.96v77.86H15.7z"/></svg>