<svg xmlns="http://www.w3.org/2000/svg" viewBox="0 0 106.1 96.43"><defs><style>.a{fill:#a8f0fc;}.b,.d{fill:none;}.b,.f{stroke:#00a9e7;}.b,.e{stroke-miterlimit:10;}.b,.d,.e,.f{stroke-width:2px;}.c{fill:#00a9e7;}.d,.e{stroke:#a8f0fc;}.d,.f{stroke-linecap:round;stroke-linejoin:round;}.e,.f{fill:#fff;}</style></defs><path class="a" d="M76.8 84.35l.13-.15a1 1 0 0 1 1.41 0 6.18 6.18 0 0 0 8.73.2 1 1 0 1 1 1.37 1.44 8.18 8.18 0 0 1-11.55-.26 1 1 0 0 1-.09-1.23zm-3 4.21a12.44 12.44 0 0 0 17.59.4 1 1 0 1 0-1.38-1.44 10.45 10.45 0 0 1-14.78-.33 1 1 0 0 0-1.41 0 .87.87 0 0 0-.13.15 1 1 0 0 0 .11 1.22zm-2.91 2.78a16.48 16.48 0 0 0 23.29.53 1 1 0 0 0-1.38-1.44 14.48 14.48 0 0 1-20.47-.46 1 1 0 0 0-1.41 0 .87.87 0 0 0-.13.16 1 1 0 0 0 .1 1.21z"/><path class="b" d="M70.94 58.42a14 14 0 0 1 2.93.74c1.5-4.26 5.13-7.73 9.91-7.73a11 11 0 0 1 10.93 10.35 8.33 8.33 0 0 1 1.09-.08 8.45 8.45 0 0 1 8.37 8.36 8.24 8.24 0 0 1-8 8.44h-26c-5.46 0-9.1-4.48-9.1-9.94a10.1 10.1 0 0 1 9.87-10.14z"/><path class="c" d="M73.94 25.57a3.63 3.63 0 0 1-3.63-3.6v-1.23H69.1a3.625 3.625 0 0 1 0-7.25h1.21v-1.21a3.625 3.625 0 1 1 7.25 0v1.21h1.21a3.625 3.625 0 0 1 0 7.25h-1.25v1.23a3.63 3.63 0 0 1-3.58 3.6zm-4.83-9.66a1.21 1.21 0 0 0 0 2.42h2.41a1.21 1.21 0 0 1 1.21 1.21v2.43a1.21 1.21 0 0 0 2.42 0v-2.44a1.21 1.21 0 0 1 1.21-1.21h2.42a1.21 1.21 0 0 0 0-2.42h-2.43a1.21 1.21 0 0 1-1.21-1.21v-2.41a1.21 1.21 0 1 0-2.42 0v2.42a1.21 1.21 0 0 1-1.2 1.2H69.1zM90.93 17.11a2.42 2.42 0 1 1-2.41-2.41 2.42 2.42 0 0 1 2.41 2.41zM95.92 12.28a2.42 2.42 0 1 1-2.4-2.42 2.42 2.42 0 0 1 2.4 2.42zM95.92 21.97a2.42 2.42 0 1 1-2.4-2.44 2.42 2.42 0 0 1 2.4 2.44zM100.75 17.11a2.42 2.42 0 1 1-2.42-2.42 2.42 2.42 0 0 1 2.42 2.42z"/><path class="d" d="M89 33.22c-1.76-.36-4.81-2.8-6.6-2.78s-4.6 2.43-6.28 2.78C67.44 35.05 60 25.97 60 17.11A16.15 16.15 0 0 1 76.11.97H89a16.15 16.15 0 0 1 16.11 16.11c-.01 8.89-7.43 17.89-16.11 16.14z"/><path class="b" d="M36.6 56.91L8.13 70.42 36.6 83.93"/><circle class="e" cx="36.6" cy="56.92" r="7.13"/><circle class="e" cx="8.13" cy="70.42" r="7.13"/><circle class="e" cx="36.6" cy="83.93" r="7.13"/><path class="f" d="M39.17 4.5h-34a4 4 0 0 0-4 4v19a4 4 0 0 0 4 4h13c.16 2.09 1.87 3 4 3s3.84-.91 4-3h13a4 4 0 0 0 4-4v-19a4 4 0 0 0-4-4z"/><path class="f" d="M37.22 26.65a62.88 62.88 0 0 0-7.54-1.15 70.66 70.66 0 0 0-7.5 1v-23s5.53-2 7.5-2 7.5 2 7.5 2zM22.17 26.5a71.75 71.75 0 0 0-7.5-1 71.75 71.75 0 0 0-7.5 1v-23s5.48-2 7.44-2 7.56 2 7.56 2v23z"/><path class="a" d="M18.17 10.5h-7a1 1 0 0 1 0-2h7a1 1 0 0 1 0 2zM18.17 14.5h-7a1 1 0 0 1 0-2h7a1 1 0 0 1 0 2zM18.17 18.5h-7a1 1 0 0 1 0-2h7a1 1 0 0 1 0 2zM33.17 10.5h-7a1 1 0 0 1 0-2h7a1 1 0 0 1 0 2zM33.17 14.5h-7a1 1 0 0 1 0-2h7a1 1 0 0 1 0 2zM33.17 18.5h-7a1 1 0 0 1 0-2h7a1 1 0 0 1 0 2z"/></svg>