<svg xmlns="http://www.w3.org/2000/svg" viewBox="0 0 116.65 130.13"><defs><style>.a{fill:#a7f0fc;}.b{fill:#fff;}.c{fill:none;stroke:#00a9e7;stroke-miterlimit:10;stroke-width:2px;}.d{fill:#00a9e7;}</style></defs><path class="a" d="M60 92.48a29.84 29.84 0 1 1 29.84-29.85A29.88 29.88 0 0 1 60 92.48zm0-57.69a27.84 27.84 0 1 0 27.84 27.84A27.88 27.88 0 0 0 60 34.79z"/><path class="a" d="M60 104.65a42 42 0 1 1 42-42 42.07 42.07 0 0 1-42 42zm0-82a40 40 0 1 0 40 40 40.07 40.07 0 0 0-40-40.04z"/><path class="a" d="M60 115.53a52.9 52.9 0 1 1 52.9-52.9 53 53 0 0 1-52.9 52.9zm0-103.8a50.9 50.9 0 1 0 50.9 50.9A51 51 0 0 0 60 11.73z"/><path class="b" d="M46.48 84.83h26.83v45.31H46.48z"/><path class="c" d="M60 130.13v-62.6"/><circle class="d" cx="60" cy="62.63" r="13.32"/><path class="d" d="M115.03 15.59c-.53-.13-1.07-.31-1.53-.46s-1-.31-1.56-.45c-1.12-.36-1.7-.85-1.7-1.47a1.24 1.24 0 0 1 .71-1.12 3.25 3.25 0 0 1 1.65-.45 4.37 4.37 0 0 1 1.83.4 4.88 4.88 0 0 1 .67.36.66.66 0 0 0 1-.58.54.54 0 0 0-.31-.54c-.29-.15-.49-.15-.71-.33a8.16 8.16 0 0 0-1.12-.36 3.91 3.91 0 0 0-.71-.09V9.08a.67.67 0 1 0-1.34 0v1.43a4 4 0 0 0-2.05.8 2.55 2.55 0 0 0-1.12 2.05 2.31 2.31 0 0 0 1.34 2.1 16.91 16.91 0 0 0 2.72.85 4.21 4.21 0 0 1 2.1.89 1.42 1.42 0 0 1 .27.76 1.6 1.6 0 0 1-.76 1.25 3.15 3.15 0 0 1-1.92.54 3.84 3.84 0 0 1-.71 0l-.71-.13a6.31 6.31 0 0 1-1.38-.62.68.68 0 0 0-1 .58.76.76 0 0 0 .31.58 8.12 8.12 0 0 0 2 .76l.85.13v1.47a.67.67 0 0 0 1.34 0v-1.57a4.46 4.46 0 0 0 2.32-.89 2.78 2.78 0 0 0 1.2-2.23 2.22 2.22 0 0 0-1.68-2.24zM17.4 10.47c-.78-.2-1.56-.46-2.28-.65s-1.5-.46-2.28-.65c-1.63-.52-2.47-1.24-2.47-2.15a1.81 1.81 0 0 1 1-1.63 4.73 4.73 0 0 1 2.41-.65 6.36 6.36 0 0 1 2.72.59 7.11 7.11 0 0 1 1 .52A1 1 0 0 0 18.93 5a.79.79 0 0 0-.46-.78c-.33-.2-.65-.33-1-.52a11.89 11.89 0 0 0-1.63-.52 5.69 5.69 0 0 0-1-.13V.97a1 1 0 1 0-2 0v2.08a5.81 5.81 0 0 0-3 1.17 3.71 3.71 0 0 0-1.63 3 3.37 3.37 0 0 0 2 3.06 24.64 24.64 0 0 0 4 1.24 6.13 6.13 0 0 1 3.06 1.3 2.07 2.07 0 0 1 .39 1.11 2.34 2.34 0 0 1-1.16 1.81 4.6 4.6 0 0 1-2.8.78 5.59 5.59 0 0 1-1-.07l-1-.2a9.2 9.2 0 0 1-2-.91 1 1 0 0 0-1.5.85 1.11 1.11 0 0 0 .46.85 11.84 11.84 0 0 0 2.76 1.09l1.24.2v2.15a1 1 0 0 0 2 0v-2.21a6.5 6.5 0 0 0 3.38-1.3 4.05 4.05 0 0 0 1.76-3.25c.07-1.43-.78-2.54-2.4-3.25zM114.75 107.76c-.41-.1-.82-.24-1.19-.34s-.78-.24-1.19-.34c-.85-.27-1.29-.65-1.29-1.12a1 1 0 0 1 .55-.85 2.48 2.48 0 0 1 1.26-.34 3.33 3.33 0 0 1 1.4.31 3.72 3.72 0 0 1 .51.27.5.5 0 0 0 .75-.44.41.41 0 0 0-.24-.41c-.17-.1-.34-.17-.51-.27a6.23 6.23 0 0 0-.85-.27 3 3 0 0 0-.55-.07v-1.09a.51.51 0 1 0-1 0v1.09a3 3 0 0 0-1.57.61 2 2 0 0 0-.85 1.57 1.76 1.76 0 0 0 1 1.6 12.91 12.91 0 0 0 2.08.65 3.21 3.21 0 0 1 1.6.68 1.09 1.09 0 0 1 .2.58 1.23 1.23 0 0 1-.58 1 2.41 2.41 0 0 1-1.47.41 2.93 2.93 0 0 1-.55 0l-.55-.1a4.82 4.82 0 0 1-1.06-.48.52.52 0 0 0-.78.44.58.58 0 0 0 .24.44 6.2 6.2 0 0 0 1.5.58l.65.1v1.12a.51.51 0 0 0 1 0v-1.16a3.4 3.4 0 0 0 1.77-.68 2.12 2.12 0 0 0 .92-1.7 1.69 1.69 0 0 0-1.2-1.79zM95.38 7.52c-.41-.1-.82-.24-1.19-.34s-.78-.24-1.19-.34c-.85-.27-1.29-.65-1.29-1.12a1 1 0 0 1 .55-.85 2.48 2.48 0 0 1 1.24-.35 3.33 3.33 0 0 1 1.4.31 3.72 3.72 0 0 1 .51.27.5.5 0 0 0 .75-.44.41.41 0 0 0-.24-.41c-.17-.1-.34-.17-.51-.27a6.23 6.23 0 0 0-.85-.27 3 3 0 0 0-.55-.07v-1.1a.51.51 0 0 0-1 0v1.09a3 3 0 0 0-1.57.61 2 2 0 0 0-.85 1.57 1.76 1.76 0 0 0 1 1.6 12.91 12.91 0 0 0 2.08.65 3.21 3.21 0 0 1 1.6.68 1.09 1.09 0 0 1 .2.58 1.23 1.23 0 0 1-.58 1 2.41 2.41 0 0 1-1.47.41 2.93 2.93 0 0 1-.55 0l-.55-.1a4.82 4.82 0 0 1-1.06-.48.52.52 0 0 0-.78.44.58.58 0 0 0 .24.44 6.2 6.2 0 0 0 1.5.58l.65.1v1.12a.51.51 0 0 0 1 0v-1.22a3.4 3.4 0 0 0 1.77-.68 2.12 2.12 0 0 0 .92-1.7 1.69 1.69 0 0 0-1.18-1.71zM3.5 31.27c-.3-.07-.59-.17-.87-.25s-.57-.17-.87-.25a1.06 1.06 0 0 1-.94-.82.69.69 0 0 1 .4-.62 1.8 1.8 0 0 1 .96-.2 2.42 2.42 0 0 1 1 .22 2.71 2.71 0 0 1 .37.2.37.37 0 0 0 .55-.32.3.3 0 0 0-.17-.3l-.37-.2a4.53 4.53 0 0 0-.62-.2 2.17 2.17 0 0 0-.4 0v-.88a.37.37 0 0 0-.74 0v.79a2.21 2.21 0 0 0-1.14.45 1.41 1.41 0 0 0-.62 1.14 1.28 1.28 0 0 0 .74 1.16 9.39 9.39 0 0 0 1.51.47 2.34 2.34 0 0 1 1.21.47.79.79 0 0 1 .15.42.89.89 0 0 1-.42.69 1.75 1.75 0 0 1-1.07.3 2.13 2.13 0 0 1-.4 0l-.4-.07a3.5 3.5 0 0 1-.79-.34.38.38 0 0 0-.57.32.42.42 0 0 0 .17.32 4.51 4.51 0 0 0 1.09.42l.47.07v.87a.385.385 0 1 0 .77 0v-.89a2.48 2.48 0 0 0 1.29-.5 1.54 1.54 0 0 0 .67-1.24 1.23 1.23 0 0 0-.96-1.23z"/></svg>