<svg id="Layer_1" xmlns="http://www.w3.org/2000/svg" viewBox="0 0 93.4 131"><style>.st0{fill:none;stroke:#1C3C4D;stroke-miterlimit:10;} .st1{fill:#00A9E7;stroke:#00A9E7;stroke-miterlimit:10;} .st2{fill:#FFFFFF;} .st3{fill:#CCEEFA;} .st4{fill:#00A9E7;} .st5{fill:none;stroke:#00A9E7;stroke-width:2;stroke-miterlimit:10;} .st6{opacity:0.2;fill:#00A9E7;enable-background:new ;} .st7{fill:#FFFFFF;stroke:#00A9E7;stroke-width:2;stroke-miterlimit:10;} .st8{fill:none;stroke:#00A9E7;stroke-width:2;stroke-linecap:round;stroke-miterlimit:10;}</style><path class="st0" d="M1.3 115.1s-2.8-24.6 21.4-27.3H33V83s7.3 3.1 14.7.3l.2 4.4H60s21 2.1 19.8 27.3H1.3z"/><path class="st1" d="M79.5 115.6H.5l.4-6.4c.7-12.5 10.6-22 21.9-22H33v1.3h-9.5c-10.9 0-20.4 9.2-21.1 21.2l-.3 4.4h77.2l-.1-4.4c-.7-12-10.2-21.2-21.1-21.2h-9.6v-1.3h10.3c11.3 0 21.1 9.6 21.9 22l.4 6.4h-1.6z"/><path class="st1" d="M33.8 82.5v7.2c0 3.7 3 6.7 6.7 6.7s6.7-3 6.7-6.7v-7c.4-.1.8-.2 1.2-.4v7.5c.5 4.4-2.7 8.3-7.1 8.8s-8.3-2.7-8.8-7.1c-.1-.6-.1-1.2 0-1.8V82c.4.2.9.4 1.3.5zM61.4 102.5l-3.3 6.9c-.2.3-.6.5-.9.3-.3-.2-.5-.6-.3-.9l3.1-6.6-2.5-4.3c-.2-.3 0-.8.3-.9.3-.1.7-.1.9.2l2.7 4.6c.1.2.1.5 0 .7zM19.6 102.5l3.3 6.9c.2.3.6.5.9.3.3-.2.5-.6.3-.9l-3.2-6.6 2.5-4.3c.2-.3 0-.8-.3-.9-.3-.1-.7-.1-.9.2l-2.7 4.6c0 .2 0 .5.1.7z"/><path class="st1" d="M32.5 86.9h1.3v28.2h-1.3V86.9zM47.3 87.1h1.3v28.2h-1.3V87.1z"/><path class="st2" d="M40.8 9.6c14.5 0 25.9 13.5 25.5 29.7l-.4 17.2C65.6 71.9 54.4 84 40.8 84S16.1 71.9 15.7 56.6l-.4-17.2C15 23.1 26.4 9.6 40.8 9.6z"/><path class="st3" d="M66.7 41.8l-1.2 19.1s-5.2 22-25.1 24.6h-.2c-19.9-2.6-25.1-24.6-25.1-24.6L14 41.8c5.2 23 9.5 24.4 9.5 24.4-.9-7 6.3-6.3 6.3-6.3 3.5.6 7 1 10.6 1.2 3.5-.2 7.1-.6 10.6-1.2 0 0 7.2-.7 6.3 6.3-.1 0 4.3-1.4 9.4-24.4zM53.8 68.6c-.3-4.1-2.8-3.8-2.8-3.8-3.4 1.1-7 1.8-10.5 2.4-3.5-.5-7-1.3-10.5-2.4 0 0-2.5-.3-2.8 3.7 0 0-1 4.1 2.3 5.8l4.2 4.4s2.9.9 2.8-2.6c0 0-.3-2.6 1.4-3h2.6v.1h2.6c1.7.4 1.4 3 1.4 3-.1 3.5 2.8 2.6 2.8 2.6l4.2-4.4c3.3-1.7 2.3-5.8 2.3-5.8z"/><path class="st4" d="M67.5 38.8l-.4 17.9C66.7 72.6 55 85.2 40.8 85.2s-26-12.5-26.3-28.4l-.4-17.9c-.4-17 11.5-31 26.7-31s27.1 14 26.7 30.9zm-26.8-29c-14.3 0-25.5 13.4-25.1 29.5l.4 17c.3 15.2 11.4 27.2 24.7 27.2s24.4-12 24.8-27.2l.4-17.1C66.2 23.1 55 9.8 40.7 9.8z"/><path class="st1" d="M38 74.8h5.6c.3 0 .5.2.5.5s-.2.5-.5.5H38c-.2 0-.4-.2-.5-.5 0-.3.2-.5.5-.5zM33.1 69.2l.7-.9c4.5 2.5 10 2.5 14.5-.1l.7.9c-5 2.9-11 2.9-15.9.1z"/><path class="st5" d="M13.9 41.5c-.3-.6-.4-.3-.7-.4-.3-.1-.7-.2-1-.2h-.5c-.2 0-.4.1-.6.1-1 .3-1.9 1.1-2.3 2.1-.3.8-.5 1.6-.5 2.4v1.6c0 .6.1 1.2.2 1.9 0 1.5.2 3.1.6 4.5.7 2.4 2.4 5.3 5.6 6.1-.3-6-.3-12.1-.8-18.1z"/><path class="st4" d="M12.6 53.1c-.3.3-.8.3-1.1 0l-.6-5.7s.8-2.8 4.1-1.3l.1 1.6s-2.9-1-2.9.2.4 5.2.4 5.2z"/><path class="st5" d="M67.4 41.5c.3-.2.5-.3.8-.4.3-.1.7-.2 1-.2h.6c.2 0 .4.1.6.1 1 .3 1.9 1.1 2.3 2.1.3.7.4 1.5.4 2.3V47c-.1.6-.1 1.2-.2 1.9 0 1.5-.2 3.1-.6 4.5-.7 2.4-2.4 5.3-5.6 6.1.3-5.8.3-12 .7-18z"/><path class="st4" d="M68.9 53.1c.3.3.8.3 1.1 0l.6-5.7s-.8-2.8-4.1-1.3l-.1 1.6s2.9-1 2.9.2-.4 5.2-.4 5.2z"/><path class="st1" d="M42.1 52.6h.4c.8 1.1 1.2 2.9 1.6 4.4.1.5 0 1.1-.1 1.6-.4 1.2-1.8 1.2-3 1.7-.3.2-.6.4-.9.5-.3-.1-.5-.4-.7-.6-.3-.4.1-.7.4-.9.6-.3 2.3-.6 2.6-1.2.2-.5.2-1 0-1.5-.1-.7-.3-1.5-.6-2.2-.3-.5-.4-1-.3-1.6.1 0 .4-.1.6-.2z"/><path class="st4" d="M28 42.8c1.3 0 2.3 1 2.3 2.3s-1 2.3-2.3 2.3c-1.3 0-2.3-1-2.3-2.3s1-2.3 2.3-2.3zM53.8 42.8c1.3 0 2.3 1 2.3 2.3 0 1.3-1 2.3-2.3 2.3-1.3 0-2.3-1-2.3-2.3 0-1.3 1-2.3 2.3-2.3z"/><path class="st4" d="M64 40.7v8.6c-.2 2.9-2.5 5.3-5.4 5.5H48.2c-4.5 0-5.3-5.3-5.3-5.3v-5.8h-4.2v5.8s-.9 5.3-5.3 5.3H23c-2.9-.3-5.2-2.6-5.4-5.5v-8.6h-3.7v-2.4h21.6s3.2.5 3.2 2.8h4.2c0-2.3 3.2-2.8 3.2-2.8h21.6v2.3H64zm-27.6 1.1c0-.5-.4-.9-.9-.9H19.9V49c0 2.5 3.5 3.5 3.5 3.5h9.5c3.3 0 3.5-3.5 3.5-3.5v-7.2zm25.3-1H46.1c-.5 0-.9.4-.9.9V49s.2 3.5 3.5 3.5h9.5s3.5-1 3.5-3.5v-8.2zm-3.3 14zm-35.5 0z"/><path class="st3" d="M14.8 40.4s.9-14 9.5-20.2c0 0 12.5 8.5 32.1 0 0 0 8.7 4 10 20.2h.5s2.5-18.6-4-26c0 0-1.6-5.7-10-9.8l-3 1.8s-2-2.5-7.4-5.6c-2.4 1.1-4.4 2.8-6 4.9l-3.3-2.1C30.4 5 27.9 7 26 9.5l-4.9.7-2.6 4.7s-6.1 4.9-4.2 25.1l.5.4z"/><path class="st4" d="M67.8 40.4l-2.2-.1c-1.3-16.2-9.2-19.2-9.2-19.2-19.6 8.5-32-.1-32-.1-7.5 6.4-8.7 19.5-8.7 19.5l-2-.6c-1.9-20.1 4.2-25.4 4.2-25.4l2.8-5.1 5.1-.7c2.7-3.7 7.6-6 7.6-6l3 2c2-3.1 6.3-4.7 6.3-4.7 5.5 3.1 7.5 5.5 7.5 5.5l3.1-1.7C61.7 7.9 64 14.4 64 14.4c6.3 7.3 3.8 26 3.8 26zm-5.4-25.7s-1-5.1-9.4-9.2l-3.1 1.9s-2-2.5-7.4-5.6c-2.2 1.2-4.2 2.9-5.7 5l-3.5-2.2c-2.7 1.4-5 3.3-6.9 5.7l-4.7.7-2.5 4.4s-5.1 3.9-4.5 19.5l.1-.1s1.6-9.7 9.5-15.7c0 0 12.8 8.7 32.4.2 0 0 7.2 3.4 9.7 15.6.2.1 1.7-12.5-4-20.2zM37.2 100.7l3.3-3.5 3.5 3.5-1.9 1.9 3 12.2h-9.3l3.3-12.2-1.9-1.9z"/><path class="st4" d="M44.5 115.1l-3.3-12.3.7-.2.5-.5 3.5 13h-1.4zm-9.3-.2l3.4-12.8.2.2.7.5h.2l-3.3 12.1h-1.2z"/><path class="st1" d="M48.4 104.2l-.9.9-3.5-3.5c-1.1 1.8-3.5 2.3-5.3 1.2-.5-.3-1-.8-1.3-1.4l-3.7 3.7-.9-.9L40 97l.6-.5.6.5 7.2 7.2zm-10.2-3.5c.5 1 1.5 1.6 2.6 1.6s2-.6 2.5-1.5l-2.6-2.6-2.5 2.5z"/><path class="st6" d="M41.1 6.1c.2.1.1.2 0 .4l-.1.8c-.1.4-.1.7-.1 1.1V10.2l.1.2c0 .1 0 .3.1.4v.2c0 .1 0 .2.1.3v.1c0 .1 0 .3.1.4s.1.5.2.7.1.3.2.5.2.5.3.8c.1.2.1.3.2.5.2.5.4.9.7 1.4l.2.4.2.3.1.1c.1.1.1.2.2.3.1.1.1.2.2.3.1.1.1.2.2.3.1.2.2.4.4.5l.4.5c.2.4.6.7.8 1.1l.3.3c.1 0 .1.1.1.2v.5c0 .1 0 .2-.1.2 0 .1-.1.1-.1.1l-.1.1c-.1.1-.2.1-.2.1-.1 0-.2-.1-.3-.1l-.4-.4-.1-.1c-.1-.2-.3-.3-.4-.5l-.1-.1-.3-.4c-.3-.4-.5-.7-.8-1L43 18c-.4-.6-.8-1.1-1.1-1.7l-.2-.5c-.2-.4-.4-.9-.6-1.3 0-.1-.1-.1-.1-.2-.1-.3-.2-.5-.3-.8s-.1-.5-.2-.8V12.4v-.2c0-.2-.1-.3-.1-.5v-.4-.1-.3-1.1-.6c0-.6.1-1.2.2-1.7 0-.2.1-.4.2-.6s.1-.3.2-.4v-.1c-.1-.2-.1-.2.1-.3-.1 0 0 0 0 0-.1 0-.1 0 0 0zm-5.5 4c.1.1.1.2.1.3v1.4s.1.4.1.6.1.4.2.6.2.5.3.8.1.3.2.4.1.2.1.3l.6 1.2c.2.3.4.7.6 1 .1.1.1.2.2.3.1.2.3.4.5.7.1.2.3.4.5.6l.1.1.2.3.1.1c.1.1.1.3.1.5-.1.2-.3.4-.5.5h-.2c-.1 0-.2-.1-.2-.2s-.1-.2-.1-.2c-.1-.2-.3-.3-.4-.5-.3-.3-.5-.7-.8-1-.5-.8-1-1.6-1.4-2.5-.1-.4-.3-.7-.4-1.1 0-.1 0-.3-.1-.4s-.1-.4-.1-.5v-.2-.2-.2-.2-.1-.5-.1-1.1-.2-.2-.2c0-.1.1-.1.1-.2.1.1.2.1.2.1s0 .1 0 0zm-4.1.9c.1.1.1.2.1.4V13.2l.1.3.2.8c.2.6.5 1.2.8 1.7l.3.5c.1.1.1.1.1.2l.5.7c.2.3.4.5.6.8.1.1.2.2.2.3 0 .1.1.1.2.2s.3.3.4.5.2.2.2.3l.3.3.3.3.1.1.4.4.1.1c0 .1.1.1.2.1s.2.1.3.2l.3.3c.1 0 .1.1.1.1l.1.1c.1.1.2.1.2.2l.1.1.1.1.3.2c.2.2.4.3.6.4.1.1.2.1.3.2V23.4c0 .1-.1.2-.1.2l-.1.1c-.1.1-.2.1-.3 0h-.1c-.2-.1-.3-.2-.4-.3h-.1c-.1 0-.1-.1-.1-.1l-.2-.1c-.1 0-.1-.1-.2-.1s-.1-.1-.2-.1c-.1-.1-.1-.1-.2-.1s-.2-.1-.2-.2c0 0-.1-.1-.2-.1l-.1-.1c-.1-.1-.2-.2-.2-.3l-.1-.1s-.2-.1-.2-.2h-.1l-.2-.1h-.1l-.1-.1s-.3-.2-.4-.3l-.1-.1c-.1-.2-.3-.3-.5-.4s-.1 0-.1-.1l-.4-.4-.2-.2-.1-.1c-.2-.2-.4-.4-.6-.7l-.9-1.2c-.1-.1-.1-.2-.2-.3-.1-.2-.2-.3-.3-.5-.1-.3-.3-.5-.4-.8l.4-.6c-.1-.2-.1-.4-.2-.5l-.2-.5c0-.2-.1-.4-.1-.5v-.2c0-.2-.1-.3-.1-.5-.1-.7-.1-1.4-.1-2.1 0-.2 0-.3.1-.5 0-.1.1-.2.2-.2h.2z"/><path class="st7" d="M69.6 78.3h18.8c2.2 0 4 1.8 4 4V126c0 2.2-1.8 4-4 4H69.6c-2.2 0-4-1.8-4-4V82.3c0-2.2 1.8-4 4-4z"/><path class="st5" d="M65.9 83.2h26.3M65.7 120.8h26.2"/><path class="st8" d="M76.7 80.8h4.7"/><circle class="st7" cx="78.8" cy="125.6" r="1.9"/><circle class="st5" cx="79" cy="100.3" r="7.4"/><circle class="st3" cx="79" cy="100.3" r="7.2"/><path class="st4" d="M80.6 100.2c-.3-.1-.7-.2-1-.3s-.7-.2-1-.3c-.5 0-1-.4-1.1-.9 0-.3.2-.6.5-.7.3-.2.7-.3 1.1-.3.4 0 .8.1 1.2.3.1.1.3.1.4.2.2.1.5 0 .6-.2 0-.1.1-.1.1-.2s-.1-.3-.2-.3l-.4-.2c-.2-.1-.5-.2-.7-.2-.2 0-.3-.1-.5-.1v-1c0-.2-.2-.4-.4-.4s-.4.2-.4.4v.9c-.5 0-.9.2-1.3.5s-.7.8-.7 1.3c0 .6.3 1.1.9 1.3.6.2 1.2.4 1.8.5.5.1 1 .3 1.3.6.1.1.2.3.2.5 0 .3-.2.6-.5.8-.4.2-.8.4-1.2.3h-.5l-.5-.1c-.3-.1-.6-.2-.9-.4-.2-.1-.5-.1-.6.1 0 .1-.1.2-.1.2 0 .1.1.3.2.4.4.2.8.4 1.3.5l.5.1v.9c0 .2.2.4.4.4s.4-.2.4-.4v-1c.5 0 1.1-.2 1.5-.6.5-.3.8-.9.8-1.4-.2-.4-.6-1-1.2-1.2z"/></svg>