<svg xmlns="http://www.w3.org/2000/svg" viewBox="0 0 47.87 48"><defs><style>.a{fill:#00a9e7;}</style></defs><path class="a" d="M37.26 15.17a19.63 19.63 0 1 1-4.43-4.43l1.27-1.27a21.4 21.4 0 1 0 4.43 4.43z"/><path class="a" d="M29.63 22.8a9.14 9.14 0 1 1-4.43-4.43l2.62-2.62a12.7 12.7 0 1 0 4.43 4.43z"/><circle class="a" cx="21.37" cy="26.63" r="3.84"/><path class="a" d="M21.37 27.51a.89.89 0 0 1-.63-1.51L42.8 3.81a.89.89 0 0 1 1.26 1.25L22 27.25a.88.88 0 0 1-.63.26z"/><path class="a" d="M44.32 0l-4.43 4.43v3.55h3.54l4.44-4.43h-3.55V0"/></svg>