<svg xmlns="http://www.w3.org/2000/svg" viewBox="0 0 75.17 41.16"><defs><style>.a{fill:#00a9e7;}</style></defs><path class="a" d="M63.6 4.35l.43-.65.46-.67 1-1.43a.38275318.38275318 0 1 0-.64-.42l-1 1.53-.53.64-.44.65a12.81 12.81 0 0 0-9.11 0l-.43-.65-.43-.65-1-1.54a.38275318.38275318 0 1 0-.64.42l1 1.43.43.64.36.7c-3.25 1.51-5.45 4.38-5.45 7.66h21.43c0-3.32-2.19-6.18-5.44-7.66zm-9.86 4.6a1.15 1.15 0 1 1 1.15-1.15 1.15 1.15 0 0 1-1.15 1.11zm9.18 0a1.15 1.15 0 1 1 1.15-1.15 1.15 1.15 0 0 1-1.15 1.11zM47.78 13.51h-.17v16.84a2.43 2.43 0 0 0 2.42 2.42h1.76a2.29 2.29 0 0 0-.09.64v4.84a2.3 2.3 0 0 0 4.59 0v-4.84a2.36 2.36 0 0 0-.09-.64h4.29a2.29 2.29 0 0 0-.09.64v4.84a2.3 2.3 0 1 0 4.59 0v-4.84a2.3 2.3 0 0 0-.09-.64h1.75a2.43 2.43 0 0 0 2.39-2.42V13.51H47.78zM43.79 13.51a2.3 2.3 0 0 0-2.3 2.3v9.82a2.3 2.3 0 1 0 4.59 0V15.8a2.3 2.3 0 0 0-2.29-2.29zM72.87 13.51a2.3 2.3 0 0 0-2.3 2.3v9.82a2.3 2.3 0 1 0 4.59 0V15.8a2.29 2.29 0 0 0-2.29-2.29zM19.58 9.62a10.33 10.33 0 0 1-2.61.41 11.51 11.51 0 0 1 1.92-6.38A9.59 9.59 0 0 1 25.07.01a1.56 1.56 0 0 1 .07.27 1.56 1.56 0 0 0 .07.27v.55a9.19 9.19 0 0 1-.72 3.37 10 10 0 0 1-2.27 3.44 7.35 7.35 0 0 1-2.64 1.71zm11.13 17.39a9.43 9.43 0 0 1-.14-10.66 17.63 17.63 0 0 1 2.82-3 14.41 14.41 0 0 0-2.61-2.47 8.89 8.89 0 0 0-5.29-1.53 14 14 0 0 0-4.26.82 12.9 12.9 0 0 1-3.57.82 17.58 17.58 0 0 1-3.44-.76 17.3 17.3 0 0 0-4.4-.76 8.48 8.48 0 0 0-7 3.57A14.76 14.76 0 0 0 0 22.35a25.44 25.44 0 0 0 3.64 12.42c2.47 4.26 4.95 6.39 7.49 6.39a9.5 9.5 0 0 0 3.3-.82 9.47 9.47 0 0 1 3.5-.82 10.13 10.13 0 0 1 3.71.82 11.3 11.3 0 0 0 3.44.82c2.13 0 4.26-1.65 6.39-4.88a23.36 23.36 0 0 0 3-6.18 8.13 8.13 0 0 1-3.76-3.09z"/></svg>